<svg width="216" height="114" viewBox="0 0 216 114" fill="none" xmlns="http://www.w3.org/2000/svg">
<g clip-path="url(#clip0_47_511)">
<path fill-rule="evenodd" clip-rule="evenodd" d="M100.539 62.5698C111.199 62.52 120.216 57.7953 128.105 50.7331C131.298 47.948 148.908 28.9994 164.686 39.2943C167.175 37.9017 163.512 29.049 153.792 25.8661C147.358 24.1751 141.019 26.1148 134.397 31.685L116.412 51.7776C111.34 56.1542 106.081 59.7847 100.539 62.5698Z" fill="#FF9933"/>
<path fill-rule="evenodd" clip-rule="evenodd" d="M30.6852 5.12431C39.2319 11.3908 37.2126 29.9913 38.5744 44.7125C41.5329 68.4854 58.3445 70.5368 70.1924 47.2108C84.8438 18.365 84.9237 20.7408 85.0176 24.7693C84.9706 29.2454 83.3226 46.6109 83.9845 49.5865C86.4733 60.7767 96.3348 62.5174 109.014 49.6363C122.163 35.3129 130.521 18.1049 147.051 12.9326C153.485 11.1919 165.506 12.3358 173.49 19.4477C174.382 15.2701 171.048 10.0978 162.595 4.42811C151.935 -1.24157 141.839 -0.644777 131.555 3.63235C125.544 6.16878 114.884 16.5632 100.045 38.4461C98.354 40.336 97.7437 38.6616 98.2132 33.423C99.1055 20.7905 98.2132 8.58549 96.4288 5.87029C93.3344 1.16212 87.9062 0.0748539 82.1931 5.06998C78.3127 8.06061 66.8302 35.3921 58.3445 45.8565C54.9165 50.0839 54.3059 46.1051 53.7424 40.3857C53.2728 36.8546 53.6486 27.4549 52.3337 12.5844C50.6901 3.98042 44.961 0.200677 35.7569 1.74243C29.6522 2.80342 27.9615 3.93069 30.6852 5.12431Z" fill="#FF9933"/>
</g>
<path fill-rule="evenodd" clip-rule="evenodd" d="M0 72.3765L8.48126 71.9386L17.3764 99.6736L26.2026 72.2304L33.9254 72.3034C39.3958 89.4797 42.131 98.0678 42.131 98.0678L50.2676 72.0845L58.7491 71.7925L45.9925 112.665C41.1197 112.714 38.6833 112.738 38.6833 112.738L29.7193 86.317L20.6173 112.738H13.2391" fill="#1771CC"/>
<path fill-rule="evenodd" clip-rule="evenodd" d="M75.0225 104.199L71.299 113.249L61.8522 112.738L77.4358 71.7195L87.9858 72.0113L103.363 112.592L94.4675 113.103L91.5716 104.345L75.0225 104.199ZM82.6764 80.6967L88.0548 95.3672L77.9185 95.2213L82.6764 80.6967Z" fill="#1771CC"/>
<path fill-rule="evenodd" clip-rule="evenodd" d="M187.141 103.479L183.418 112.53L173.971 112.019L189.555 71L200.105 71.2918L215.482 111.873L206.586 112.383L203.69 103.625L187.141 103.479ZM194.795 79.9773L200.174 94.6477L190.037 94.5018L194.795 79.9773Z" fill="#1771CC"/>
<path fill-rule="evenodd" clip-rule="evenodd" d="M112.172 71.6371L119.771 71.5632L120.05 112.445L112.102 112.519L112.172 71.6371Z" fill="#1771CC"/>
<path fill-rule="evenodd" clip-rule="evenodd" d="M148.597 98.5059H142.322L142.253 112.519H134.254L134.323 71.9387L151.217 72.0116C158.526 71.9386 163.629 75.15 164.732 84.3464C164.594 90.9882 162.318 94.9296 157.63 97.0463C162.732 107.41 165.238 112.446 165.146 112.154L155.699 112.373L148.597 98.5059ZM142.322 79.3833L142.529 91.4261L151.493 91.5722C154.665 90.5504 156.319 88.4337 155.906 85.7331C156.182 81.7918 153.63 80.6241 151.424 79.6023C150.045 79.6023 147.011 79.2373 142.322 79.3833Z" fill="#1771CC"/>
<defs>
<clipPath id="clip0_47_511">
<rect width="145" height="64" fill="white" transform="translate(29)"/>
</clipPath>
</defs>
</svg>
